<svg width="532" height="763" viewBox="0 0 532 763" fill="none" xmlns="http://www.w3.org/2000/svg">
<path d="M275.751 691.724L58.6197 559.797L268.63 437.756L275.751 691.724Z" fill="url(#paint0_linear_11_261)"/>
<path d="M275.891 692.421L147.142 613.717L271.407 541.589L275.891 692.421Z" fill="url(#paint1_linear_11_261)"/>
<path d="M59.9394 416.793L470.939 194.778L470.939 338.778L59.9396 559.778L59.9394 416.793Z" fill="url(#paint2_linear_11_261)"/>
<path d="M61.5504 129.281L294.199 4.3237L293 144L61.168 272.771L61.5504 129.281Z" fill="url(#paint3_linear_11_261)"/>
<path d="M294 6L379 62.2772V209L293 146.191L294 6Z" fill="url(#paint4_linear_11_261)"/>
<path d="M56.9479 275.883L293 144L380.221 208.888L158.721 330.888L56.9479 275.883Z" fill="url(#paint5_linear_11_261)"/>
<defs>
<linearGradient id="paint0_linear_11_261" x1="260.5" y1="498" x2="107.5" y2="577.5" gradientUnits="userSpaceOnUse">
<stop offset="0.269248" stop-color="#B23BEC"/>
<stop offset="0.995258" stop-color="#8040EC"/>
</linearGradient>
<linearGradient id="paint1_linear_11_261" x1="187.069" y1="539.397" x2="275.891" y2="692.421" gradientUnits="userSpaceOnUse">
<stop offset="0.45887" stop-color="#DC3BF0"/>
<stop offset="0.686898" stop-color="#E643EF"/>
<stop offset="0.890831" stop-color="#F35CD8"/>
</linearGradient>
<linearGradient id="paint2_linear_11_261" x1="30.3934" y1="505.329" x2="500.91" y2="250.011" gradientUnits="userSpaceOnUse">
<stop offset="0.0804285" stop-color="#30E4E8"/>
<stop offset="0.538225" stop-color="#54AAE6"/>
<stop offset="0.920431" stop-color="#8581E6"/>
</linearGradient>
<linearGradient id="paint3_linear_11_261" x1="61.5" y1="137" x2="287" y2="137" gradientUnits="userSpaceOnUse">
<stop offset="0.0154831" stop-color="#2AEFEB"/>
<stop offset="0.413489" stop-color="#30E4E8"/>
<stop offset="1" stop-color="#3AD7E9"/>
</linearGradient>
<linearGradient id="paint4_linear_11_261" x1="370" y1="60" x2="293" y2="157" gradientUnits="userSpaceOnUse">
<stop offset="0.186462" stop-color="#F36ED7"/>
<stop offset="0.556244" stop-color="#F35CD8"/>
</linearGradient>
<linearGradient id="paint5_linear_11_261" x1="351.5" y1="206.5" x2="87.9999" y2="269.5" gradientUnits="userSpaceOnUse">
<stop stop-color="#E039F4"/>
<stop offset="1" stop-color="#923DED"/>
</linearGradient>
</defs>
</svg>
