<svg width="1683" height="1700" viewBox="0 0 1683 1700" fill="none" xmlns="http://www.w3.org/2000/svg">
<rect width="1683" height="1700" fill="#F8F4E8"/>
<path fill-rule="evenodd" clip-rule="evenodd" d="M824.469 1080.5V952.5C824.469 942 828.788 934.501 840.788 934.501C852.788 934.501 856.973 942 856.973 952.5V1080.5C865.115 1186.54 925.473 1255.5 1039.97 1262.5C1070.97 1264.4 1082.47 1215.5 1042.97 1210C961.973 1203.5 920.973 1147 917.473 1080.5V960.5L982.473 1059.5C1081.47 1200 1232.47 1159.5 1257.97 1055.5C1266.19 1022 1221.47 1007.5 1209.47 1036C1195.97 1097.5 1118.97 1123.5 1054.97 1055.5C1026.02 1016.9 1007.81 988.672 972.973 930.5C1132.47 1017.5 1282.97 943 1268.47 801.5C1263.97 777 1223.97 771 1216.47 801.5C1223.47 915 1105.47 937.5 996.973 874.5C1080.47 870 1149.97 815.5 1149.97 731V693.5C1160.1 648.129 1199.97 639 1219.97 645C1251.97 652 1270.47 609 1234.47 594C1174.47 581.5 1103.97 609.5 1094.47 689V731C1094.47 804.5 978.471 839.5 958.473 794.5C954.918 786.5 956.326 775.152 962.473 770C1033.47 710.5 1036.3 649 1030.47 596.5C1020.97 511 934.969 437 842.971 437H838.469C746.471 437 660.471 511 650.971 596.5C645.138 649 647.971 710.5 718.969 770C725.117 775.152 726.524 786.5 722.969 794.5C702.971 839.5 586.969 804.5 586.969 731V689C577.471 609.5 506.971 581.5 446.969 594C410.971 609 429.471 652 461.469 645C481.471 639 521.345 648.129 531.469 693.5V731C531.469 815.5 600.971 870 684.469 874.5C575.971 937.5 457.971 915 464.969 801.5C457.471 771 417.471 777 412.969 801.5C398.471 943 548.973 1017.5 708.469 930.5C673.628 988.672 655.419 1016.9 626.469 1055.5C562.469 1123.5 485.469 1097.5 471.969 1036C459.969 1007.5 415.255 1022 423.469 1055.5C448.969 1159.5 599.969 1200 698.969 1059.5L763.969 960.5V1080.5C760.469 1147 719.469 1203.5 638.469 1210C598.969 1215.5 610.469 1264.4 641.469 1262.5C755.969 1255.5 816.327 1186.54 824.469 1080.5Z" fill="#13043A"/>
<ellipse cx="749.471" cy="638.5" rx="23" ry="23.5" fill="#F8F4E8"/>
<ellipse cx="931.471" cy="638.5" rx="23" ry="23.5" fill="#F8F4E8"/>
<ellipse cx="767.831" cy="712.5" rx="18.3597" ry="18.7588" fill="#F8F4E8"/>
<ellipse cx="913.112" cy="712.5" rx="18.3597" ry="18.7588" fill="#F8F4E8"/>
</svg>
